<svg width="25" height="22" viewBox="0 0 25 22" fill="none" xmlns="http://www.w3.org/2000/svg">
<path d="M1.86739 0.0316482L22.2277 0C24.7338 0.0574357 25.103 3.43207 22.5817 3.86694L1.60952 3.85639C-0.66798 3.32072 -0.44527 0.243808 1.86739 0.0316482Z" fill="#2F211D"/>
<path d="M1.39267 9.05026L22.8091 9.03033C24.9214 9.58242 24.735 12.4835 22.5817 12.7742H1.71736C-0.405419 12.4542 -0.614063 9.76996 1.39267 9.05026Z" fill="#2F211D"/>
<path d="M23.7738 21.175C23.6086 21.3403 23.2803 21.454 23.0787 21.5935L1.5978 21.6861C-0.530834 21.2219 -0.510907 18.3982 1.5978 17.9293H22.7025C24.1993 18.1755 24.8546 20.0943 23.7738 21.175Z" fill="#2F211D"/>
</svg>
